<svg version="1.1" viewBox="0.0 0.0 960.0 720.0" fill="none" stroke="none" stroke-linecap="square" stroke-miterlimit="10" xmlns:xlink="http://www.w3.org/1999/xlink" xmlns="http://www.w3.org/2000/svg"><clipPath id="p.0"><path d="m0 0l960.0 0l0 720.0l-960.0 0l0 -720.0z" clip-rule="nonzero"/></clipPath><g clip-path="url(#p.0)"><path fill="#000000" fill-opacity="0.0" d="m0 0l960.0 0l0 720.0l-960.0 0z" fill-rule="evenodd"/><path fill="#000000" fill-opacity="0.0" d="m545.0433 570.31464l0 0c37.720642 -37.72058 38.25647 -98.34195 1.1968994 -135.40155q-33.55121 -33.551178 -67.10239 -67.102356q-34.149597 34.149597 -68.299194 68.299194l0 0c-37.720642 37.72061 -38.25647 98.34198 -1.1968689 135.40155l0 0c37.0596 37.05963 97.68097 36.523804 135.40155 -1.1968384z" fill-rule="evenodd"/><path stroke="#ff008a" stroke-width="4.0" stroke-linejoin="round" stroke-linecap="butt" d="m545.0433 570.31464l0 0c37.720642 -37.72058 38.25647 -98.34195 1.1968994 -135.40155q-33.55121 -33.551178 -67.10239 -67.102356q-34.149597 34.149597 -68.299194 68.299194l0 0c-37.720642 37.72061 -38.25647 98.34198 -1.1968689 135.40155l0 0c37.0596 37.05963 97.68097 36.523804 135.40155 -1.1968384z" fill-rule="evenodd"/><path fill="#000000" fill-opacity="0.0" d="m412.89896 169.73723l0 0c-37.72061 37.72061 -38.25647 98.341965 -1.1968689 135.40157q33.551178 33.551178 67.102356 67.102356q34.149597 -34.149597 68.299255 -68.299194l0 0c37.72058 -37.72061 38.25641 -98.341965 1.1968384 -135.40158l0 0c-37.05963 -37.059616 -97.68097 -36.523758 -135.40158 1.1968536z" fill-rule="evenodd"/><path stroke="#ff008a" stroke-width="4.0" stroke-linejoin="round" stroke-linecap="butt" d="m412.89896 169.73723l0 0c-37.72061 37.72061 -38.25647 98.341965 -1.1968689 135.40157q33.551178 33.551178 67.102356 67.102356q34.149597 -34.149597 68.299255 -68.299194l0 0c37.72058 -37.72061 38.25641 -98.341965 1.1968384 -135.40158l0 0c-37.05963 -37.059616 -97.68097 -36.523758 -135.40158 1.1968536z" fill-rule="evenodd"/><path fill="#000000" fill-opacity="0.0" d="m273.8832 435.75034l0 0c37.72061 37.72061 98.34195 38.25647 135.40155 1.1968689q33.55121 -33.551178 67.10239 -67.102356q-34.149628 -34.149628 -68.299225 -68.299225l0 0c-37.72061 -37.72061 -98.34195 -38.25647 -135.40158 -1.1968384l0 0c-37.0596 37.0596 -36.523758 97.68094 1.1968689 135.40155z" fill-rule="evenodd"/><path stroke="#395539" stroke-width="8.0" stroke-linejoin="round" stroke-linecap="butt" d="m273.8832 435.75034l0 0c37.72061 37.72061 98.34195 38.25647 135.40155 1.1968689q33.55121 -33.551178 67.10239 -67.102356q-34.149628 -34.149628 -68.299225 -68.299225l0 0c-37.72061 -37.72061 -98.34195 -38.25647 -135.40158 -1.1968384l0 0c-37.0596 37.0596 -36.523758 97.68094 1.1968689 135.40155z" fill-rule="evenodd"/><path fill="#000000" fill-opacity="0.0" d="m682.50525 435.75034l0 0c-37.720642 37.72061 -98.34198 38.25647 -135.40155 1.1968689q-33.55121 -33.551178 -67.10239 -67.102356q34.149628 -34.149628 68.299225 -68.299225l0 0c37.72058 -37.72061 98.34192 -38.25647 135.40155 -1.1968384l0 0c37.05963 37.0596 36.523743 97.68094 -1.1968384 135.40155z" fill-rule="evenodd"/><path stroke="#395539" stroke-width="8.0" stroke-linejoin="round" stroke-linecap="butt" d="m682.50525 435.75034l0 0c-37.720642 37.72061 -98.34198 38.25647 -135.40155 1.1968689q-33.55121 -33.551178 -67.10239 -67.102356q34.149628 -34.149628 68.299225 -68.299225l0 0c37.72058 -37.72061 98.34192 -38.25647 135.40155 -1.1968384l0 0c37.05963 37.0596 36.523743 97.68094 -1.1968384 135.40155z" fill-rule="evenodd"/></g></svg>